<?xml version="1.0" standalone="no"?>
<!DOCTYPE svg PUBLIC "-//W3C//DTD SVG 20010904//EN"
 "http://www.w3.org/TR/2001/REC-SVG-20010904/DTD/svg10.dtd">
<svg version="1.0" xmlns="http://www.w3.org/2000/svg"
 width="513.000000pt" height="513.000000pt" viewBox="0 0 513.000000 513.000000"
 preserveAspectRatio="xMidYMid meet">
<metadata>
Created by potrace 1.14, written by Peter Selinger 2001-2017
</metadata>
<g transform="translate(0.000000,513.000000) scale(0.100000,-0.100000)"
fill="#000000" stroke="none">
<path d="M529 4736 c-87 -31 -139 -79 -178 -166 -20 -45 -21 -58 -21 -1977 0
-1905 0 -1933 20 -1985 32 -84 109 -154 195 -174 25 -6 450 -10 1100 -9 1111
1 1095 0 1165 43 96 59 151 187 128 297 -24 116 -114 203 -228 223 -31 5 -437
8 -932 8 l-878 -1 0 1592 0 1591 1650 0 1650 -1 1 -21 c1 -27 1 -3149 0 -3156
-2 -10 -351 -5 -352 5 0 6 -1 600 -2 1320 l-2 1310 -22 45 c-31 62 -80 112
-139 141 -71 35 -179 33 -250 -3 -69 -36 -98 -72 -197 -245 -46 -81 -115 -202
-153 -268 -37 -66 -71 -122 -75 -125 -3 -3 -8 -10 -10 -17 -11 -31 -425 -742
-431 -740 -4 1 -96 155 -204 342 -108 187 -248 430 -312 540 -64 110 -145 251
-180 313 -102 180 -163 226 -302 226 -62 0 -84 -4 -125 -26 -72 -38 -119 -93
-144 -171 -17 -52 -18 -2085 -1 -2148 56 -208 326 -278 477 -123 35 36 69 103
77 150 2 16 5 240 5 499 l1 470 26 -45 c14 -25 36 -63 49 -85 50 -90 156 -271
165 -285 5 -8 18 -31 28 -50 66 -123 210 -360 236 -388 97 -103 266 -114 382
-25 39 29 51 48 227 353 74 129 143 249 153 267 11 17 46 79 79 137 33 58 62
106 66 106 3 0 5 -408 5 -907 1 -672 4 -919 13 -950 18 -65 81 -136 148 -169
l58 -29 530 1 c470 0 534 2 567 16 95 42 161 125 175 218 4 30 8 912 7 1960
l-1 1905 -26 55 c-29 63 -73 108 -137 142 l-45 23 -2000 2 c-1618 2 -2007 0
-2036 -11z"/>
</g>
</svg>
